<svg xmlns="http://www.w3.org/2000/svg" viewBox="0 0 240 300">
  <path d="M 64 106 C 67 76 90 58 120 56 C 150 58 173 76 176 106" fill="none" stroke="#0E0A0A" stroke-width="13" stroke-linecap="round"/>
  <path d="M 65 108 C 68 76 91 56 120 54 C 149 56 172 76 175 108 C 168 92 154 78 120 74 C 86 78 72 92 65 108 Z" fill="#1C1618"/>
  <path d="M 66 108 C 58 130 50 165 50 195 C 50 220 54 245 60 265 C 56 265 52 260 50 250 C 46 230 42 195 44 165 C 46 138 54 118 60 106 Z" fill="#1C1618"/>
  <path d="M 174 108 C 182 130 190 165 190 195 C 190 220 186 245 180 265 C 184 265 188 260 190 250 C 194 230 198 195 196 165 C 194 138 186 118 180 106 Z" fill="#1C1618"/>
  <path d="M 106 60 C 102 80 98 110 94 142" fill="none" stroke="#0E0A0A" stroke-width="1.5" stroke-linecap="round" opacity="0.55"/>
  <path d="M 118 55 C 115 76 113 106 111 140" fill="none" stroke="#7C7080" stroke-width="1.2" stroke-linecap="round" opacity="0.5"/>
  <path d="M 130 58 C 128 78 126 108 125 140" fill="none" stroke="#0E0A0A" stroke-width="1.4" stroke-linecap="round" opacity="0.5"/>
  <path d="M 54 120 C 52 148 48 178 50 205" fill="none" stroke="#7C7080" stroke-width="2.2" stroke-linecap="round" opacity="0.4"/>
  <path d="M 186 120 C 188 148 192 178 190 205" fill="none" stroke="#7C7080" stroke-width="2.2" stroke-linecap="round" opacity="0.4"/>
  <ellipse cx="108" cy="65" rx="18" ry="8" fill="#7C7080" opacity="0.45"/>
</svg>
