<svg xmlns="http://www.w3.org/2000/svg" viewBox="0 0 240 300">
  <path d="M 66 108 C 68 80 90 62 120 60 C 150 62 172 80 174 108" fill="none" stroke="#0E0A0A" stroke-width="11" stroke-linecap="round"/>
  <path d="M 68 110 C 70 80 92 60 120 58 C 148 60 170 80 172 110 C 166 95 152 81 120 77 C 88 81 74 95 68 110 Z" fill="#1C1618"/>
  <ellipse cx="120" cy="52" rx="20" ry="15" fill="#0E0A0A"/>
  <ellipse cx="120" cy="52" rx="16" ry="11" fill="#1C1618"/>
  <ellipse cx="113" cy="47" rx="8" ry="5" fill="#7C7080" opacity="0.5"/>
  <ellipse cx="120" cy="60" rx="13" ry="3.5" fill="#0E0A0A" opacity="0.85"/>
  <path d="M 108 60 C 112 58 116 57 120 57 C 124 57 128 58 132 60" fill="none" stroke="#7C7080" stroke-width="0.8" stroke-linecap="round" opacity="0.4"/>
  <path d="M 82 80 C 80 88 77 96 75 104" fill="none" stroke="#1C1618" stroke-width="2.8" stroke-linecap="round"/>
  <path d="M 80 82 C 78 90 76 98 74 106" fill="none" stroke="#7C7080" stroke-width="1.0" stroke-linecap="round" opacity="0.5"/>
  <path d="M 158 80 C 160 88 163 96 165 104" fill="none" stroke="#1C1618" stroke-width="2.8" stroke-linecap="round"/>
  <path d="M 160 82 C 162 90 164 98 166 106" fill="none" stroke="#7C7080" stroke-width="1.0" stroke-linecap="round" opacity="0.5"/>
  <path d="M 96 68 C 95 76 94 84 92 94" fill="none" stroke="#7C7080" stroke-width="1.3" stroke-linecap="round" opacity="0.45"/>
  <ellipse cx="108" cy="68" rx="14" ry="6" fill="#7C7080" opacity="0.38"/>
</svg>
