<svg xmlns="http://www.w3.org/2000/svg" viewBox="0 0 240 300">
  <path d="M 65 104 C 68 76 90 58 120 56 C 150 58 172 76 175 104" fill="none" stroke="#0E0A0A" stroke-width="14" stroke-linecap="round" stroke-linejoin="round"/>
  <path d="M 67 106 C 69 76 91 57 120 55 C 149 57 171 76 173 106 C 168 96 156 84 120 80 C 84 84 72 96 67 106 Z" fill="#1C1618"/>
  <path d="M 100 60 C 98 70 96 82 94 94" fill="none" stroke="#7C7080" stroke-width="1.4" stroke-linecap="round" opacity="0.5"/>
  <path d="M 118 55 C 116 66 115 79 114 92" fill="none" stroke="#7C7080" stroke-width="1.2" stroke-linecap="round" opacity="0.45"/>
  <path d="M 136 58 C 138 68 139 80 140 92" fill="none" stroke="#7C7080" stroke-width="1.2" stroke-linecap="round" opacity="0.4"/>
  <ellipse cx="108" cy="68" rx="16" ry="8" fill="#7C7080" opacity="0.48"/>
</svg>
