<svg xmlns="http://www.w3.org/2000/svg" viewBox="0 0 240 300">
  <!-- Bord du chapeau -->
  <ellipse cx="120" cy="56" rx="76" ry="13" fill="#1A0F06"/>
  <!-- Corps du chapeau -->
  <rect x="68" y="10" width="104" height="48" rx="7" fill="#1A0F06"/>
  <!-- Bande blanche -->
  <rect x="68" y="40" width="104" height="14" fill="#F2EDE4"/>
  <!-- Tête de mort - crâne -->
  <circle cx="120" cy="47" r="9" fill="#1A0F06"/>
  <ellipse cx="115" cy="44.5" rx="2.8" ry="3.2" fill="#F2EDE4"/>
  <ellipse cx="125" cy="44.5" rx="2.8" ry="3.2" fill="#F2EDE4"/>
  <!-- Dents -->
  <path d="M 113 50 L 115 49 L 117 50 L 119 49 L 121 50 L 123 49 L 125 50 L 127 49"
        fill="none" stroke="#F2EDE4" stroke-width="1.4" stroke-linecap="round"/>
  <!-- Plume rouge -->
  <path d="M 166 6 C 152 14 156 30 147 48 C 151 36 160 26 166 6 Z" fill="#C0291E" opacity="0.92"/>
  <path d="M 166 6 C 176 16 172 32 164 50 C 162 38 164 22 166 6 Z" fill="#8C1A12" opacity="0.70"/>
  <!-- Reflet chapeau -->
  <ellipse cx="110" cy="22" rx="18" ry="5" fill="white" opacity="0.08" transform="rotate(-8 110 22)"/>
</svg>
