<svg xmlns="http://www.w3.org/2000/svg" viewBox="0 0 240 300">
  <circle cx="86" cy="200" r="1.1" fill="#2A1C12" opacity="0.55"/>
  <circle cx="93" cy="198" r="1.1" fill="#2A1C12" opacity="0.55"/>
  <circle cx="100" cy="197" r="1.1" fill="#2A1C12" opacity="0.55"/>
  <circle cx="107" cy="196" r="1.1" fill="#2A1C12" opacity="0.55"/>
  <circle cx="114" cy="196" r="1.1" fill="#2A1C12" opacity="0.55"/>
  <circle cx="120" cy="196" r="1.1" fill="#2A1C12" opacity="0.55"/>
  <circle cx="126" cy="196" r="1.1" fill="#2A1C12" opacity="0.55"/>
  <circle cx="133" cy="196" r="1.1" fill="#2A1C12" opacity="0.55"/>
  <circle cx="140" cy="197" r="1.1" fill="#2A1C12" opacity="0.55"/>
  <circle cx="147" cy="198" r="1.1" fill="#2A1C12" opacity="0.55"/>
  <circle cx="154" cy="200" r="1.1" fill="#2A1C12" opacity="0.55"/>
  <circle cx="88" cy="207" r="1.1" fill="#2A1C12" opacity="0.5"/>
  <circle cx="96" cy="206" r="1.1" fill="#2A1C12" opacity="0.5"/>
  <circle cx="103" cy="205" r="1.1" fill="#2A1C12" opacity="0.5"/>
  <circle cx="110" cy="205" r="1.1" fill="#2A1C12" opacity="0.5"/>
  <circle cx="117" cy="204" r="1.1" fill="#2A1C12" opacity="0.5"/>
  <circle cx="123" cy="204" r="1.1" fill="#2A1C12" opacity="0.5"/>
  <circle cx="130" cy="205" r="1.1" fill="#2A1C12" opacity="0.5"/>
  <circle cx="137" cy="206" r="1.1" fill="#2A1C12" opacity="0.5"/>
  <circle cx="145" cy="207" r="1.1" fill="#2A1C12" opacity="0.5"/>
  <circle cx="90" cy="214" r="1.1" fill="#2A1C12" opacity="0.45"/>
  <circle cx="98" cy="213" r="1.1" fill="#2A1C12" opacity="0.45"/>
  <circle cx="106" cy="212" r="1.1" fill="#2A1C12" opacity="0.45"/>
  <circle cx="113" cy="212" r="1.1" fill="#2A1C12" opacity="0.45"/>
  <circle cx="120" cy="211" r="1.1" fill="#2A1C12" opacity="0.45"/>
  <circle cx="127" cy="212" r="1.1" fill="#2A1C12" opacity="0.45"/>
  <circle cx="134" cy="212" r="1.1" fill="#2A1C12" opacity="0.45"/>
  <circle cx="142" cy="213" r="1.1" fill="#2A1C12" opacity="0.45"/>
  <circle cx="150" cy="214" r="1.1" fill="#2A1C12" opacity="0.45"/>
  <circle cx="94" cy="221" r="1.1" fill="#2A1C12" opacity="0.4"/>
  <circle cx="102" cy="220" r="1.1" fill="#2A1C12" opacity="0.4"/>
  <circle cx="110" cy="219" r="1.1" fill="#2A1C12" opacity="0.4"/>
  <circle cx="118" cy="219" r="1.1" fill="#2A1C12" opacity="0.4"/>
  <circle cx="122" cy="219" r="1.1" fill="#2A1C12" opacity="0.4"/>
  <circle cx="130" cy="220" r="1.1" fill="#2A1C12" opacity="0.4"/>
  <circle cx="138" cy="220" r="1.1" fill="#2A1C12" opacity="0.4"/>
  <circle cx="146" cy="221" r="1.1" fill="#2A1C12" opacity="0.4"/>
</svg>
